<?xml version="1.0" encoding="utf-8"?>
<!-- Svg Vector Icons : http://www.onlinewebfonts.com/icon -->
<svg version="1.1" xmlns="http://www.w3.org/2000/svg" xmlns:xlink="http://www.w3.org/1999/xlink"
    x="0px" y="0px" viewBox="0 0 256 256" enable-background="new 0 0 256 256" xml:space="preserve">
<metadata> Svg Vector Icons : http://www.onlinewebfonts.com/icon </metadata>
<g><g><g><path fill="#000000" d="M96.6,11.3c-1.3,1.1-2.2,4.2-4.7,16.7c-1.7,8.4-3.1,15.8-3.1,16.3c0,1.6,3.6,4.8,5.6,4.8c3.3,0,4.8-2.8,6.6-12.3c1-4.8,2.1-10.4,2.5-12.5l0.8-3.6H128h23.6l0.8,3.6c0.5,2.1,1.5,7.7,2.5,12.5c1.8,9.4,3.3,12.3,6.7,12.3c1.8,0,5.6-3.1,5.6-4.5c0-0.4-1.4-7.7-3.1-16.3c-2.5-12.7-3.3-15.8-4.7-16.9c-1.5-1.1-4.1-1.3-31.3-1.3C100.8,10,98.1,10.2,96.6,11.3z"/><path fill="#000000" d="M62.5,56.3c-3.1,1.4-6.4,5.3-6.9,8.4c-0.2,1.4-0.4,30.8-0.2,65.4c0.2,62.2,0.2,63,1.8,65.1c0.8,1.1,2.5,2.8,3.7,3.7c2.1,1.6,2.7,1.6,67,1.6h65l2.7-2.1c5.5-4.2,5.3-0.1,5.1-71.4c-0.2-63.2-0.2-64-1.8-66c-0.8-1.1-2.5-2.8-3.7-3.7c-2.1-1.6-2.8-1.6-66.2-1.8C76.7,55.3,64.3,55.4,62.5,56.3z M189.7,128v61.7H128H66.3l-0.2-60.9c-0.1-33.5,0-61.4,0.2-61.9c0.2-0.8,13-0.9,61.8-0.8l61.5,0.2L189.7,128L189.7,128z"/><path fill="#000000" d="M81.4,79c-0.9,0.4-2.1,1.6-2.5,2.8c-0.5,1.3-0.7,18.2-0.6,47.5c0.2,42.4,0.3,45.5,1.6,46.8s4.2,1.4,48,1.4s46.7-0.1,48-1.4s1.4-4.2,1.4-48s-0.1-46.7-1.4-48s-4.3-1.4-47.1-1.5C102.4,78.3,82.4,78.6,81.4,79z M113.1,96.2c5,3.8,6.4,11,3.1,15.8c-5.1,7.6-14.7,8.1-20.1,1.1C87.8,102.2,102.2,87.8,113.1,96.2z M155.6,95.2c6.8,3.4,8.7,12,4.2,17.9c-3.8,5-11,6.4-15.8,3.1c-7.2-4.8-8.2-13.8-2.1-19.5C145.8,93.2,150.4,92.7,155.6,95.2z M112,139.7c7.6,5.1,8.1,14.7,1.1,20.1c-8.3,6.3-20.5-0.6-19.4-11C94.7,140.1,104.9,135,112,139.7z M155.1,139c3.4,1.5,6.5,5.6,7,9.7c0.9,7.5-5.9,14.3-13.4,13.4c-8.7-1.1-13.7-11.2-9-18.2C143.5,138.5,149.3,136.6,155.1,139z"/><path fill="#000000" d="M90.8,208.8c-1.1,1-1.9,2.3-1.9,2.8s1.4,7.9,3.1,16.3c2.5,12.5,3.4,15.6,4.7,16.6c1.5,1.2,4.1,1.4,31.3,1.4c27.2,0,29.9-0.2,31.3-1.4c1.4-1.1,2.2-4.2,4.8-17.2l3.1-16l-1.5-2c-0.9-1.3-2.5-2.1-3.8-2.3c-3.8-0.4-5.3,2.1-7.2,12.1c-0.9,4.8-2,10.4-2.5,12.4l-0.8,3.7H128h-23.7l-0.8-4.1c-0.5-2.1-1.7-8-2.7-13c-1.9-9.5-2.9-11.2-6.4-11.3C93.4,206.9,91.8,207.8,90.8,208.8z"/></g></g></g>
</svg>