<?xml version="1.0" encoding="utf-8"?>
<!-- Svg Vector Icons : http://www.onlinewebfonts.com/icon -->
<!DOCTYPE svg PUBLIC "-//W3C//DTD SVG 1.1//EN" "http://www.w3.org/Graphics/SVG/1.1/DTD/svg11.dtd">
<svg version="1.1" xmlns="http://www.w3.org/2000/svg" xmlns:xlink="http://www.w3.org/1999/xlink" x="0px" y="0px" viewBox="0 0 256 256" enable-background="new 0 0 256 256" xml:space="preserve">
<metadata> Svg Vector Icons : http://www.onlinewebfonts.com/icon </metadata>
<g><g><g><path fill="#000000" d="M76.5,39.3L25.8,68.6V128v59.3l20.6,11.9c11.3,6.5,23.6,13.6,27.3,15.7c34.6,20,53.9,31.1,54.1,31.1c0.2,0,8.9-4.9,19.3-10.9c10.4-6,23.7-13.7,29.6-17.1c5.9-3.4,19.4-11.2,30.1-17.3c10.7-6.2,20.3-11.8,21.4-12.4l1.9-1.2V128V68.8l-1.9-1.2C186.7,43.6,128.1,10,127.7,10C127.4,10,104.4,23.2,76.5,39.3z M169.5,57l40.8,23.5V128v47.5l-2.9,1.7c-44,25.5-79.4,45.7-80,45.5c-0.4-0.2-19-10.8-41.3-23.7l-40.6-23.4V128V80.4l40.9-23.6c22.4-13,41.2-23.6,41.6-23.5C128.4,33.4,147.1,44,169.5,57z"/><path fill="#000000" d="M122.6,77.9c-18.9,1.7-36.1,12.8-46,29.5c-3.9,6.6-6.7,15.5-7.5,24c-1.5,15.3,4.1,32.7,14.1,43.6l2.8,3l3.9-3.9l3.9-3.9l-2.5-3.1c-5-6.1-7.5-11.1-9.5-18.5c-1.1-4-1.2-5.4-1.2-11.7c0-6.2,0.2-7.8,1.2-11.7c4.9-18.6,19.5-32.1,38.2-35.3c10.2-1.8,20.8,0,30.4,5c26.8,14.2,33.3,49.5,13.6,72.9c-1,1.2-1.8,2.3-1.8,2.5c0,0.1,1.7,2,3.8,4l3.8,3.8l2.8-3.1c5.5-6,10.3-15.1,12.5-23.8c4.2-16.6,1.1-33.9-8.7-48.2c-3.4-5-10.8-12.3-15.8-15.6C149.4,80.2,135.6,76.6,122.6,77.9z"/><path fill="#000000" d="M123.4,101.6c-10.9,1.3-20.9,8.1-26.4,18c-3.8,6.9-5.3,16.6-3.6,24.3c1.2,5.7,5.4,13.8,8.5,16.6l1,0.9l4-4l4-4l-1.7-2c-5-6.1-6.5-15.3-3.8-22.9c2.8-7.9,10.4-14.2,18.9-15.5c8.9-1.3,18.3,2.7,23.2,10c5.9,8.9,5.6,19.9-0.8,28.3l-1.8,2.3l3.8,3.8c2.1,2.1,4,3.9,4.2,3.9c0.7,0,4.7-5.5,6.4-9c2.9-5.8,3.8-10.4,3.6-17.1c-0.2-4.4-0.5-6.3-1.5-9.3c-3.2-9.5-9.3-16.5-18.1-20.8C137,101.9,130.3,100.8,123.4,101.6z"/><path fill="#000000" d="M123.4,125.8c-2.3,1-4.9,3.6-6,6.1c-2.9,6.2,0.2,13.5,6.7,15.7c9.6,3.3,18.5-6.6,14.2-15.8c-1.2-2.7-4.2-5.4-6.7-6.1C129.3,125,125.2,125.1,123.4,125.8z"/></g></g></g>
</svg>