<?xml version="1.0" encoding="utf-8"?>
<!-- Svg Vector Icons : http://www.onlinewebfonts.com/icon -->
<!DOCTYPE svg PUBLIC "-//W3C//DTD SVG 1.1//EN" "http://www.w3.org/Graphics/SVG/1.1/DTD/svg11.dtd">
<svg version="1.1" xmlns="http://www.w3.org/2000/svg" xmlns:xlink="http://www.w3.org/1999/xlink" x="0px" y="0px" viewBox="0 0 256 256" enable-background="new 0 0 256 256" xml:space="preserve">
<metadata> Svg Vector Icons : http://www.onlinewebfonts.com/icon </metadata>
<g><g><g><path fill="#000000" d="M68.9,54.3L10,98.5v7.4v7.4h14.8h14.8v51.6v51.6H24.8H10v14.8V246h118h118v-14.8v-14.8h-14.8h-14.8v-51.6v-51.6h14.8H246v-7.4v-7.4l-14.8-11.1l-14.8-11.1V57.9V39.5h-14.8H187v7.4v7.4l-29.5-22.1C141.3,19.9,128,10,127.9,10C127.8,10,101.3,29.9,68.9,54.3z M96.4,143.4c7.9,2.1,14.1,8.3,16.1,16.2c0.6,2.2,0.7,7.2,0.7,29.7v27.1H91.1H69v-27.1c0-22.5,0.1-27.5,0.7-29.7C72.8,147.8,84.9,140.4,96.4,143.4z M187,164.9V187h-22.1h-22.1v-22.1v-22.1h22.1H187V164.9z"/></g></g></g>
</svg>