<?xml version="1.0" encoding="utf-8"?>
<!-- Svg Vector Icons : http://www.onlinewebfonts.com/icon -->
<!DOCTYPE svg PUBLIC "-//W3C//DTD SVG 1.1//EN" "http://www.w3.org/Graphics/SVG/1.1/DTD/svg11.dtd">
<svg version="1.1" xmlns="http://www.w3.org/2000/svg" xmlns:xlink="http://www.w3.org/1999/xlink" x="0px" y="0px" viewBox="0 0 256 256" enable-background="new 0 0 256 256" xml:space="preserve">
<metadata> Svg Vector Icons : http://www.onlinewebfonts.com/icon </metadata>
<g><g><g><path fill="#000000" d="M60.9,11.6c-3.7,1.8-6.4,4.7-7.8,8.5c-1,2.7-1,3.9-1,107.9s0,105.2,1,107.9c1.4,3.8,4.1,6.7,7.8,8.5L64,246h64h64l3.1-1.6c3.7-1.8,6.4-4.7,7.8-8.5c1-2.7,1-3.9,1-107.9s0-105.2-1-107.9c-1.4-3.8-4.1-6.7-7.8-8.5L192,10h-64H64L60.9,11.6z M192,19.5c0.8,0.6,2,2.1,2.6,3.3l1.1,2.3v94.5V214l-1.1,2.3c-0.7,1.2-1.8,2.7-2.6,3.3c-1.4,1.1-1.7,1.1-64,1.1c-62.3,0-62.5,0-64-1.1c-0.8-0.6-1.9-2.1-2.6-3.3l-1.1-2.3v-94.3c0-101.5-0.2-96.2,2.5-99.1c2.2-2.4,0.1-2.3,65.9-2.2C190.2,18.5,190.5,18.5,192,19.5z M140.7,233.5l0.2,4.3H128h-12.8v-4c0-2.2,0.2-4.2,0.4-4.4c0.2-0.2,5.9-0.3,12.7-0.2l12.4,0.2L140.7,233.5z"/></g></g></g>
</svg>