<?xml version="1.0" encoding="utf-8"?>
<!-- Svg Vector Icons : http://www.onlinewebfonts.com/icon -->
<!DOCTYPE svg PUBLIC "-//W3C//DTD SVG 1.1//EN" "http://www.w3.org/Graphics/SVG/1.1/DTD/svg11.dtd">
<svg version="1.1" xmlns="http://www.w3.org/2000/svg" xmlns:xlink="http://www.w3.org/1999/xlink" x="0px" y="0px" viewBox="0 0 256 256" enable-background="new 0 0 256 256" xml:space="preserve">
<metadata> Svg Vector Icons : http://www.onlinewebfonts.com/icon </metadata>
<g><g><path fill="#000000" d="M69,128c0,16.3,5.8,30.2,17.3,41.7C97.8,181.2,111.7,187,128,187s30.2-5.8,41.7-17.3c11.5-11.5,17.3-25.4,17.3-41.7c0-16.3-5.8-30.2-17.3-41.7C158.2,74.8,144.3,69,128,69s-30.2,5.8-41.7,17.3C74.8,97.8,69,111.7,69,128z M206.8,128c0,25.2-10,45.8-30,61.8l-9.7,56.2H88.8l-9.7-56.2c-20-15.4-30-36-30-61.8c0-25.8,10-46.4,30-61.8L88.8,10h78.4l9.7,56.2C196.8,82.2,206.8,102.8,206.8,128z"/></g></g>
</svg>