<?xml version="1.0" encoding="utf-8"?>
<!-- Svg Vector Icons : http://www.onlinewebfonts.com/icon -->
<!DOCTYPE svg PUBLIC "-//W3C//DTD SVG 1.1//EN" "http://www.w3.org/Graphics/SVG/1.1/DTD/svg11.dtd">
<svg version="1.1" xmlns="http://www.w3.org/2000/svg" xmlns:xlink="http://www.w3.org/1999/xlink" x="0px" y="0px" viewBox="0 0 256 256" enable-background="new 0 0 256 256" xml:space="preserve">
<metadata> Svg Vector Icons : http://www.onlinewebfonts.com/icon </metadata>
<g><g><g><path fill="#000000" d="M119.9,40.1c-9.2,1.4-17.5,5.2-25.4,11.6l-3.2,2.5l2.7,2.7l2.6,2.7l2.3-2c4.8-4.3,11.2-7.7,17.9-9.6c5.6-1.5,16.4-1.5,22.1,0c6.8,1.8,13.2,5.2,17.9,9.5l2.4,2.1l2.6-2.7l2.7-2.7l-3.2-2.5c-6.3-5-10.4-7.3-17.2-9.6C136.3,39.5,128,38.8,119.9,40.1z"/><path fill="#000000" d="M122.3,54.6c-7.5,1.3-13.4,4.3-20.2,10c-0.1,0.1,1,1.3,2.4,2.7l2.6,2.6l3-2.3c5.6-4.2,11.1-6.1,17.9-6.1c6.8,0,12.3,1.9,17.9,6.1l3,2.3l2.6-2.6c1.4-1.4,2.4-2.6,2.4-2.7c-5.6-4.7-10.7-7.5-16.2-9.1C133.7,54.4,125.7,53.9,122.3,54.6z"/><path fill="#000000" d="M122.9,69.5c-3,0.7-6.8,2.6-8.9,4.4l-1.6,1.3l2.5,2.6l2.5,2.5l1.5-1.2c2.3-1.8,5.9-3,9-3c3.1,0,6.6,1.2,9,3l1.5,1.2l2.5-2.5l2.5-2.6l-1.6-1.3C136.9,69.8,129.2,68,122.9,69.5z"/><path fill="#000000" d="M125.3,84.3c-0.8,0.3-2.1,1.3-2.9,2.3c-2.7,3.1-2.4,6.8,0.8,9.7c3.2,2.9,6.9,2.6,9.9-0.6c2.8-3.1,2.7-6.7-0.3-9.6C130.4,83.7,128,83.1,125.3,84.3z"/><path fill="#000000" d="M91.4,91.6c-2.3,0.7-6.6,5.2-7.3,7.5c-0.3,1.1-0.6,4.1-0.6,6.6s0.2,5.6,0.6,6.6c0.7,2.5,5,6.8,7.6,7.6c2.7,0.8,69.6,0.8,72.3,0c2.5-0.7,6.8-5,7.6-7.6c0.7-2.4,0.7-10.8,0-13.3c-0.7-2.5-5-6.8-7.6-7.6c-1.2-0.4-5.4-0.6-11.7-0.6h-9.7v3.7v3.7h10.2c12.8,0,12-0.5,12,7.4c0,4.9-0.1,5.6-0.9,6.5c-0.9,0.9-1.5,0.9-36,0.9c-34.5,0-35.1,0-36-0.9c-0.8-0.8-0.9-1.5-0.9-6.5c0-7.8-0.8-7.4,12-7.4h10.2v-3.7V91l-10,0C97.2,91.1,92.4,91.4,91.4,91.6z"/><path fill="#000000" d="M62.8,98.7c-12.7,1.3-25,7.2-34.7,16.6c-9,8.7-14.7,19-17.3,31.1c-1.2,5.4-1.2,16.7,0,22.1c2.6,12.1,8.3,22.3,17.3,31.1c6.9,6.7,13.9,11,22.8,13.9c9.2,3,7.7,3,76.9,3c69.3,0,67.7,0,77.1-3c14.9-4.9,28-16.4,35-30.5c3.5-7,6-17.7,6-25.5s-2.5-18.5-6-25.5c-5.4-10.8-15.1-20.9-25.9-26.6c-8.3-4.5-15.9-6.4-26.8-6.8l-7.8-0.3v3.7v3.7l7.8,0.3c10.1,0.4,16,1.8,23.4,5.5c22.6,11.4,33.4,38.5,25.2,62.7c-6.1,18.1-21.3,31-40.4,34.3c-6.1,1.1-129.1,1.1-135.3,0C41,205.1,25.7,192,19.8,173.9c-8-24.5,2.9-51.1,25.5-62.5c7.6-3.8,15.5-5.5,25-5.5h6v-3.7v-3.7l-5.9,0.1C67.1,98.5,63.7,98.6,62.8,98.7z"/><path fill="#000000" d="M61.6,113.9c-18.4,3.3-33.2,18.2-36.4,36.6c-2.8,15.8,4.2,32.4,17.8,42.5c4,3,10.8,6.2,15.7,7.5l3.9,1.1h65.3h65.3l3.9-1.1c13.1-3.4,23.9-12.4,29.7-24.6c3.3-6.7,4.1-10.5,4.1-18.4c0-7.9-0.8-11.7-4.1-18.4c-4.7-9.7-11.8-16.8-21.5-21.5c-6.3-3-10.4-3.9-18.7-4.2l-7.1-0.3v3.8v3.7h5.5c11.6,0,19.9,3,27.4,10.1c15.3,14.4,15.3,39.3,0,53.7c-5.3,5-11.3,8-18.5,9.4c-5,1-127.1,1-132.1,0c-7.2-1.4-13.2-4.4-18.5-9.4c-15.1-14.3-15.3-39-0.3-53.4c7.5-7.2,15.9-10.3,27.7-10.3h5.5v-3.7v-3.7l-5.6,0C67.4,113.2,63.4,113.5,61.6,113.9z"/><path fill="#000000" d="M109.4,157.5v3.7h3.7h3.7v-3.7v-3.7h-3.7h-3.7V157.5z"/><path fill="#000000" d="M124.2,157.5v3.7h3.7h3.7v-3.7v-3.7h-3.7h-3.7V157.5z"/><path fill="#000000" d="M139,157.5v3.7h3.7h3.7v-3.7v-3.7h-3.7H139V157.5z"/></g></g></g>
</svg>